<svg id="Layer_1" data-name="Layer 1" xmlns="http://www.w3.org/2000/svg" viewBox="0 0 500 500"><defs><style>.cls-1{fill:#fefefe;}.cls-2{fill:#00aeef;}.cls-3{fill:#fdfdfd;}</style></defs><path class="cls-1" d="M249.24,499.87q-121.76,0-243.51.13C1,500,0,499.1,0,494.33Q.28,250.1,0,5.87C0,.41,1.68,0,6.23,0Q250.09.21,493.94,0c5,0,6.05,1,6,6q-.24,243.89,0,487.77c0,5.56-1.66,6.2-6.56,6.19Q371.34,499.74,249.24,499.87Z" transform="translate(0 0)"/><path class="cls-2" d="M184.07,190.16c11.64-.4,21.57,4.49,31.09,10.35a141.77,141.77,0,0,1,29,23.56c4.76,5.06,7.45,4.38,11.91-.23,8.68-9,18.6-16.54,29-23.55,31.87-21.48,64.81-5.29,79.36,15.76,17.88,25.9,12.31,62.12-12.83,81.34-19.76,15.11-42.58,16.46-64.11,3.69a154.87,154.87,0,0,1-31.9-25.42c-4-4.1-6.39-5-10.89-.28a152.39,152.39,0,0,1-31.25,25.13c-21.94,13.26-44.63,12.28-64.68-2.9-19.47-14.73-28.19-40.55-21.54-63.7C134.59,208.2,157.79,190.35,184.07,190.16Z" transform="translate(0 0)"/><path class="cls-2" d="M131.43,249.66c.61-19.84,9.12-35.44,26.37-45.73,17.49-10.42,35.06-10.15,52.36.87,15.93,10.14,29.71,22.72,42.27,36.73,13.14,14.66,26.95,28.52,43.4,39.62,12.83,8.66,25.77,9.94,39,1.76s19.73-20.62,18.34-36.32-9.93-26.54-24.45-32.53a30.07,30.07,0,0,0-27.34,1.55c-11.22,6.24-20.88,14.46-30.15,23.19-2.85,2.68-5.21,4.13-7.47-.08-1.8-3.33-9.25-5.12-3-10.9a245.64,245.64,0,0,1,28.11-22.5c33.47-22.71,72.12,1.9,78.73,33.8,7.37,35.62-24.69,70.29-59.41,63.72-7.87-1.49-14.79-5.26-21.36-9.61-14.54-9.64-27.25-21.4-38.87-34.36-13.3-14.82-27.33-28.75-43.87-40.13-19.45-13.4-37-5.79-47.53,5.36-12.61,13.38-13.37,34.25-2.2,49.15,11.44,15.26,30.32,19.23,46.75,9.67,10.24-6,19.15-13.7,27.74-21.8,2.23-2.12,4.64-4.85,6.89-.49,1.8,3.49,10,5.19,3.46,11.38A192.8,192.8,0,0,1,210.56,295c-17.22,11-34.81,11.68-52.37,1.33S131.93,270.22,131.43,249.66Z" transform="translate(0 0)"/><path class="cls-3" d="M152.76,249.89c.48-12.38,6-21.78,16.56-27.93,10.16-5.91,20.1-5.19,30,1.34a211.35,211.35,0,0,1,28.4,23.17c3,2.83,2.53,4.67-.21,7.24a212,212,0,0,1-27.85,22.77c-10,6.69-20.18,7.55-30.58,1.35S153.16,262.11,152.76,249.89Z" transform="translate(0 0)"/><path class="cls-1" d="M347.24,250.21c-.53,12.18-6,21.61-16.57,27.77-10.16,5.91-20.08,5.21-30-1.3-10.29-6.77-19.47-14.78-28.42-23.16-3-2.82-2.54-4.65.19-7.25a216.71,216.71,0,0,1,27.26-22.4c9.91-6.77,20-8.14,30.58-2.13C341.17,227.94,346.79,237.53,347.24,250.21Z" transform="translate(0 0)"/></svg>