<svg id="Layer_1" data-name="Layer 1" xmlns="http://www.w3.org/2000/svg" viewBox="0 0 367.69 76.14"><defs><style>.cls-1{fill:#00aeef;}.cls-2{fill:#fdfdfd;}.cls-3{fill:#fefefe;}.cls-4{font-size:41.93px;fill:#58595b;font-family:AKbalthomKampuchearath, AKbalthom Kampuchearath;}</style></defs><path class="cls-1" d="M101.61,215.23c6.78-.24,12.55,2.61,18.09,6A82.45,82.45,0,0,1,136.55,235c2.77,3,4.34,2.55,6.93-.13a104.17,104.17,0,0,1,16.87-13.7c18.55-12.5,37.71-3.08,46.17,9.17a34.94,34.94,0,0,1-7.46,47.32c-11.49,8.79-24.77,9.58-37.3,2.15A90.17,90.17,0,0,1,143.2,265c-2.32-2.39-3.71-2.9-6.33-.16a88.85,88.85,0,0,1-18.18,14.62c-12.76,7.71-26,7.14-37.63-1.69a34.77,34.77,0,0,1,20.55-62.51Z" transform="translate(-67.24 -215.21)"/><path class="cls-1" d="M71,249.84c.35-11.54,5.3-20.62,15.34-26.6s20.4-5.91,30.46.5a119.16,119.16,0,0,1,24.59,21.37c7.65,8.53,15.68,16.59,25.25,23.05,7.47,5,15,5.79,22.67,1s11.47-12,10.67-21.14-5.78-15.43-14.23-18.92a17.49,17.49,0,0,0-15.9.9c-6.53,3.63-12.15,8.42-17.54,13.49-1.66,1.56-3,2.41-4.35,0-1-1.94-5.38-3-1.72-6.34a142.05,142.05,0,0,1,16.35-13.09c19.47-13.22,42,1.1,45.8,19.66,4.29,20.72-14.36,40.89-34.56,37.07-4.58-.87-8.6-3.06-12.42-5.59a118.59,118.59,0,0,1-22.62-20c-7.74-8.62-15.9-16.73-25.52-23.35-11.32-7.79-21.53-3.37-27.65,3.12a22.3,22.3,0,0,0-1.28,28.6c6.66,8.87,17.64,11.18,27.19,5.62a89.15,89.15,0,0,0,16.14-12.68c1.3-1.23,2.7-2.83,4-.29,1.05,2,5.82,3,2,6.63A112.73,112.73,0,0,1,117,276.19c-10,6.41-20.25,6.8-30.47.77S71.28,261.8,71,249.84Z" transform="translate(-67.24 -215.21)"/><path class="cls-2" d="M83.4,250c.28-7.21,3.48-12.68,9.63-16.25,5.91-3.44,11.69-3,17.44.78A123.68,123.68,0,0,1,127,248c1.75,1.65,1.46,2.72-.13,4.22a123.3,123.3,0,0,1-16.2,13.24c-5.84,3.9-11.74,4.4-17.79.79A18.54,18.54,0,0,1,83.4,250Z" transform="translate(-67.24 -215.21)"/><path class="cls-3" d="M196.54,250.16c-.31,7.09-3.47,12.58-9.64,16.16-5.91,3.43-11.68,3-17.44-.76a124.46,124.46,0,0,1-16.53-13.47c-1.75-1.65-1.48-2.71.11-4.22a125.43,125.43,0,0,1,15.86-13c5.76-3.94,11.66-4.74,17.79-1.24C193,237.21,196.28,242.78,196.54,250.16Z" transform="translate(-67.24 -215.21)"/><text class="cls-4" transform="translate(169.83 53.44)">Rocket Devs</text></svg>